<svg xmlns="http://www.w3.org/2000/svg" width="180" height="180">
    <g fill="none" stroke="#1D9E75" stroke-width="1.4" opacity="0.05">
        <path d="M20 150c0-40 20-65 45-80"/>
        <path d="M30 110c8-4 14-2 18 4"/>
        <path d="M42 90c8-4 14-1 17 5"/>
        <path d="M54 70c7-4 13-1 16 5"/>
        <path d="M140 30c-25 5-40 22-44 48"/>
        <path d="M115 55c-3 8-1 14 5 17"/>
        <path d="M100 70c-3 8 0 14 6 17"/>
        <circle cx="150" cy="140" r="9"/>
        <path d="M150 131v-10M150 149v10M141 140h-10M159 140h10"/>
    </g>
</svg>
